<svg width="800" height="500" xmlns="http://www.w3.org/2000/svg">
    <defs>
        <linearGradient id="mainFacilityGradient" x1="0%" y1="0%" x2="100%" y2="100%">
            <stop offset="0%" style="stop-color:#38a169"/>
            <stop offset="50%" style="stop-color:#3182ce"/>
            <stop offset="100%" style="stop-color:#805ad5"/>
        </linearGradient>
    </defs>
    <rect width="100%" height="100%" fill="url(#mainFacilityGradient)"/>
    <g fill="rgba(255,255,255,0.3)">
        <rect x="50" y="200" width="700" height="200" rx="10"/>
        <polygon points="30,200 770,200 800,150 0,150"/>
        <rect x="150" y="100" width="30" height="100"/>
        <rect x="250" y="80" width="30" height="120"/>
        <rect x="450" y="90" width="30" height="110"/>
        <rect x="550" y="85" width="30" height="115"/>
        <ellipse cx="165" cy="80" rx="20" ry="10" fill="rgba(255,255,255,0.2)"/>
        <ellipse cx="265" cy="60" rx="25" ry="12" fill="rgba(255,255,255,0.2)"/>
        <ellipse cx="465" cy="70" rx="22" ry="11" fill="rgba(255,255,255,0.2)"/>
        <ellipse cx="565" cy="65" rx="23" ry="12" fill="rgba(255,255,255,0.2)"/>
        <rect x="100" y="230" width="40" height="60" fill="rgba(255,255,255,0.1)"/>
        <rect x="170" y="230" width="40" height="60" fill="rgba(255,255,255,0.1)"/>
        <rect x="240" y="230" width="40" height="60" fill="rgba(255,255,255,0.1)"/>
        <rect x="400" y="230" width="40" height="60" fill="rgba(255,255,255,0.1)"/>
        <rect x="470" y="230" width="40" height="60" fill="rgba(255,255,255,0.1)"/>
        <rect x="540" y="230" width="40" height="60" fill="rgba(255,255,255,0.1)"/>
        <rect x="610" y="230" width="40" height="60" fill="rgba(255,255,255,0.1)"/>
        <rect x="300" y="300" width="120" height="100"/>
        <rect x="310" y="320" width="100" height="60" fill="rgba(0,0,0,0.2)"/>
    </g>
    <text x="400" y="450" font-family="Inter, Arial, sans-serif" font-size="28" font-weight="bold" 
          fill="white" text-anchor="middle">MAIN MANUFACTURING FACILITY</text>
    <text x="400" y="480" font-family="Inter, Arial, sans-serif" font-size="16" 
          fill="rgba(255,255,255,0.9)" text-anchor="middle">15,000 Square Meters • Abidjan, Ivory Coast</text>
</svg>
