<svg width="800" height="500" xmlns="http://www.w3.org/2000/svg">
    <defs>
        <linearGradient id="teamGradient" x1="0%" y1="0%" x2="100%" y2="100%">
            <stop offset="0%" style="stop-color:#805ad5"/>
            <stop offset="50%" style="stop-color:#3182ce"/>
            <stop offset="100%" style="stop-color:#38a169"/>
        </linearGradient>
    </defs>
    
    <!-- Background -->
    <rect width="100%" height="100%" fill="url(#teamGradient)"/>
    
    <!-- Conference table -->
    <ellipse cx="400" cy="350" rx="300" ry="80" fill="rgba(255,255,255,0.3)"/>
    
    <!-- People silhouettes around table -->
    <g fill="rgba(255,255,255,0.4)">
        <!-- Person 1 -->
        <g transform="translate(200, 200)">
            <circle cx="0" cy="0" r="25"/>
            <rect x="-20" y="25" width="40" height="60" rx="20"/>
        </g>
        
        <!-- Person 2 -->
        <g transform="translate(350, 180)">
            <circle cx="0" cy="0" r="25"/>
            <rect x="-20" y="25" width="40" height="60" rx="20"/>
        </g>
        
        <!-- Person 3 -->
        <g transform="translate(450, 180)">
            <circle cx="0" cy="0" r="25"/>
            <rect x="-20" y="25" width="40" height="60" rx="20"/>
        </g>
        
        <!-- Person 4 -->
        <g transform="translate(600, 200)">
            <circle cx="0" cy="0" r="25"/>
            <rect x="-20" y="25" width="40" height="60" rx="20"/>
        </g>
        
        <!-- Person 5 -->
        <g transform="translate(300, 300)">
            <circle cx="0" cy="0" r="25"/>
            <rect x="-20" y="25" width="40" height="60" rx="20"/>
        </g>
        
        <!-- Person 6 -->
        <g transform="translate(500, 300)">
            <circle cx="0" cy="0" r="25"/>
            <rect x="-20" y="25" width="40" height="60" rx="20"/>
        </g>
    </g>
    
    <!-- Laptops on table -->
    <g fill="rgba(255,255,255,0.3)">
        <rect x="250" y="320" width="60" height="40" rx="5"/>
        <rect x="260" y="325" width="40" height="25" fill="rgba(0,0,0,0.3)"/>
        
        <rect x="490" y="320" width="60" height="40" rx="5"/>
        <rect x="500" y="325" width="40" height="25" fill="rgba(0,0,0,0.3)"/>
    </g>
    
    <!-- Documents/papers -->
    <g fill="rgba(255,255,255,0.2)">
        <rect x="350" y="330" width="30" height="40" rx="2"/>
        <rect x="390" y="335" width="30" height="40" rx="2"/>
        <rect x="430" y="330" width="30" height="40" rx="2"/>
    </g>
    
    <!-- Connection lines showing collaboration -->
    <g stroke="rgba(255,255,255,0.3)" stroke-width="2" fill="none">
        <line x1="200" y1="250" x2="350" y2="230"/>
        <line x1="350" y1="230" x2="450" y2="230"/>
        <line x1="450" y1="230" x2="600" y2="250"/>
        <line x1="300" y1="325" x2="500" y2="325"/>
    </g>
    
    <!-- Main text -->
    <text x="400" y="100" font-family="Inter, Arial, sans-serif" font-size="28" font-weight="bold" 
          fill="white" text-anchor="middle">TEAM COLLABORATION</text>
    <text x="400" y="130" font-family="Inter, Arial, sans-serif" font-size="16" 
          fill="rgba(255,255,255,0.9)" text-anchor="middle">Working Together for Better Healthcare</text>
</svg>
